<svg xmlns="http://www.w3.org/2000/svg" width="512" height="512" style="overflow: visible;" viewBox="0 0 512 512" data-svgdocument="" id="_F7g1IQfhRjaDej3rFYLh6" class="fl-svgdocument" x="0" y="0" data-bbox="134.92701256793478 156.51964496422966 243.0777338603426 184.491144017831"><defs id="_MaIzexQ6ap5dgz2x3BfdL" transform="matrix(0.8334774971008301, 0, 0, 0.8334774971008301, 45.44513702392578, 44.05232620239258)" data-uid="o_f09mfbn39_5"></defs><g id="_cQMuhqOz7DGLXDgKnr_P_" transform="matrix(0.8124989867210388, 0, 0, 0.8124989867210388, 50.38447952270508, 48.01589584350586)" data-uid="o_f09mfbn39_6"><path id="_DJfeFkIpLOkhmQ6XPGxCr" d="M1135.489,1869.41c-54.202,0-109.341-12.591-163.887-37.424c-48.258-21.971-95.257-53.06-139.691-92.402     c-39.071-34.595-75.482-75.266-105.296-117.614c-27.7-39.345-48.691-78.456-60.703-113.104     c-47.003-135.586-70.103-159.772-220.395-317.137l-0.269-0.282l0.292-0.258c95.476-84.322,193.351-127.077,290.906-127.077     c52.293,0,104.816,12.342,156.11,36.682c41.026,19.468,81.362,46.612,119.888,80.679     c65.588,57.997,103.679,116.758,104.056,117.345l0.092,0.143l-0.047,0.163c-78.273,274.695-57.663,335.99-12.503,470.29     c9.626,28.628,20.537,61.075,31.808,99.517l0.141,0.48H1135.489z" stroke="none" fill="#117182" transform="matrix(0.06799230724573135, 0, 0, 0.076911062002182, 156.59475708007812, 109.87701416015625)" stroke-width="1" data-uid="o_f09mfbn39_7"></path><path id="_qVHaCnKOKdkCgJrp_BE0m" d="M824.227,2085.855c-72.56,0-137.921-13.329-194.266-39.618c-62.897-29.345-111.703-73.824-145.063-132.204     c-77.742-136.047-161.764-207.711-218.561-243.873c-61.512-39.164-105.18-46.26-105.613-46.327l-0.683-0.105l0.461-0.515     c0.314-0.352,32.058-35.546,84.109-70.279c30.572-20.401,62.068-36.656,93.612-48.314     c39.438-14.576,79.063-21.967,117.774-21.967c47.341,0,94.018,11.077,138.734,32.923l0.096,0.047l0.057,0.09     c107.469,170.564,236.878,292.474,384.633,362.341c115.492,54.611,205.486,58.855,230.317,58.855     c4.341,0,6.686-0.131,6.709-0.132l0.917-0.053l-0.619,0.68c-38.223,41.951-97.749,79.757-167.614,106.453     C977.322,2071.332,899.518,2085.855,824.227,2085.855z" stroke="none" fill="#42afc2" transform="matrix(0.06799230724573135, 0, 0, 0.076911062002182, 153.9996337890625, 112.48458862304688)" stroke-width="1" data-uid="o_f09mfbn39_8"></path><path id="_9r7AdIJwtMLxXa182bRhb" d="M1698.804,1258.046c-29.531-32.108-56.412-67.534-82.408-101.793c-61.076-80.489-118.759-156.515-199.07-174.122     c-80.312,17.607-137.995,93.633-199.07,174.122c-25.996,34.259-52.877,69.685-82.409,101.793l-0.326,0.355l-0.264-0.404     c-58.677-89.844-99.559-114.101-208.819-178.929c-21.146-12.547-45.114-26.768-72.152-43.226l-0.17-0.104l-0.009-0.199     c-3.966-83.283,6.523-154.126,31.176-210.563c29.198-66.842,79.094-115.531,148.303-144.716     c70.312-29.649,170.83-110.898,242.772-173.837c77.963-68.205,140.085-130.19,140.704-130.808l0.265-0.265l0.265,0.265     c0.619,0.618,62.745,62.606,140.708,130.811c71.941,62.938,172.458,144.186,242.767,173.834     c69.209,29.185,119.105,77.874,148.304,144.716c24.653,56.436,35.143,127.279,31.177,210.563l-0.01,0.199l-0.17,0.104     c-27.04,16.459-51.008,30.68-72.154,43.227c-109.26,64.828-150.142,89.084-208.817,178.929l-0.265,0.404L1698.804,1258.046z" stroke="none" fill="#42afc2" transform="matrix(0.06799230724573135, 0, 0, 0.076911062002182, 159.1673126220703, 104.71312713623047)" stroke-width="1" data-uid="o_f09mfbn39_9"></path><path id="_joO86ShA-Rn3zgHURKJbB" d="M1698.66,1869.41l0.141-0.48c11.271-38.442,22.182-70.89,31.808-99.518c45.159-134.299,65.77-195.595-12.504-470.289     l-0.047-0.163l0.092-0.143c0.377-0.587,38.46-59.348,104.044-117.345c38.522-34.066,78.858-61.21,119.886-80.679     c51.296-24.34,103.823-36.682,156.124-36.682c97.556,0,195.431,42.755,290.906,127.077l0.292,0.258l-0.269,0.282     c-150.292,157.364-173.392,181.551-220.396,317.137c-12.012,34.648-33.002,73.76-60.701,113.104     c-29.814,42.349-66.226,83.02-105.296,117.614c-44.434,39.343-91.433,70.432-139.69,92.402     c-54.547,24.833-109.687,37.424-163.889,37.424H1698.66z" stroke="none" fill="#117182" transform="matrix(0.06799230724573135, 0, 0, 0.076911062002182, 161.78533935546875, 109.87709045410156)" stroke-width="1" data-uid="o_f09mfbn39_10"></path><path id="_2-FS5Z6T6uAH9GTM8y09R" d="M2010.423,2085.855c-75.284-0.003-153.088-14.528-224.998-42.005c-69.872-26.698-129.399-64.502-167.617-106.447     l-0.619-0.68l0.918,0.053c0.023,0.001,2.362,0.132,6.709,0.132c24.833,0,114.833-4.245,230.335-58.866     c147.749-69.869,277.151-191.774,384.615-362.33l0.057-0.09l0.096-0.047c44.717-21.846,91.394-32.923,138.734-32.923     c38.707,0,78.329,7.391,117.766,21.967c31.544,11.658,63.04,27.913,93.613,48.314c52.055,34.733,83.803,69.928,84.117,70.279     l0.461,0.515l-0.683,0.105c-0.435,0.067-44.139,7.176-105.659,46.355c-56.784,36.163-140.789,107.823-218.517,243.845     c-33.364,58.388-82.169,102.87-145.059,132.212c-56.333,26.283-121.687,39.61-194.244,39.61     C2010.439,2085.855,2010.432,2085.855,2010.423,2085.855z" stroke="none" fill="#42afc2" transform="matrix(0.06799230724573135, 0, 0, 0.076911062002182, 164.2906036376953, 113.34296417236328)" stroke-width="1" data-uid="o_f09mfbn39_11"></path><path id="_0QRRML4kuoquqTftP7Frs" d="M1412.911,2277.986c-1.112-1.147-111.43-115.679-130.946-192.413c-4.524-17.789-1.653-34.806,8.535-50.577     c8.133-12.592,20.921-24.416,38.01-35.146c29.063-18.247,60.951-27.124,61.27-27.211l0.048-0.014h46.707l0.049,0.014     c0.318,0.087,32.206,8.964,61.269,27.211c17.089,10.729,29.878,22.554,38.011,35.146c10.188,15.771,13.06,32.788,8.535,50.577     c-19.517,76.734-129.835,191.266-130.947,192.413l-0.27,0.278L1412.911,2277.986z" stroke="none" fill="#117182" transform="matrix(0.06799230724573135, 0, 0, 0.076911062002182, 159.1947021484375, 111.62487030029297)" stroke-width="1" data-uid="o_f09mfbn39_12"></path><path id="_XTrUOBWKZhEtFNTyLSzZJ" d="M1413.042,1950.047c-0.72-0.285-72.84-29.258-144.412-94.104c-42.039-38.089-75.671-80.922-99.961-127.307    c-30.365-57.985-46.133-121.714-46.865-189.417c-0.732-67.695,14.121-136.979,44.147-205.925    c24.017-55.147,57.74-110.204,100.232-163.64c70.772-89,142.834-144.003,146.622-146.866v-3.87l0.599,0.448    c0.736,0.549,74.428,56.003,146.772,146.979c42.493,53.436,76.216,108.493,100.232,163.64    c30.026,68.946,44.88,138.229,44.147,205.925c-0.732,67.702-16.5,131.431-46.864,189.416    c-24.291,46.385-57.923,89.218-99.962,127.307c-69.515,62.983-139.547,92.125-144.175,94.01v3.607L1413.042,1950.047z" stroke="none" fill="#117182" transform="matrix(0.06799230724573135, 0, 0, 0.076911062002182, 159.2022247314453, 109.89225006103516)" stroke-width="1" data-uid="o_f09mfbn39_13"></path></g><path id="_sdGpG1rlHOux_utPSeHYe" fill="#455a5c" transform="matrix(0.5480896234512329, 0, 0, 0.5480896234512329, 256.46588134765625, 340.24346923828125)" text="Travelink" text-anchor="middle" font-size="100" letter-spacing="0" side="left" offset="0.5" dx="0" dy="0" space="preserve" href="" font-family="Gabriela" font-scale="contain" x="0" y="0" data-fl-textpath="" data-uid="o_f09mfbn39_14" d="M-170.25-57.2Q-171.25-60.9 -172.4-62.75Q-173.55-64.6 -175.55-65.35Q-177.55-66.1 -181.15-66.1L-181.15-66.1L-185.65-66.1Q-187.75-66.1 -188.4-64.65Q-189.05-63.2 -189.05-58.5L-189.05-58.5L-189.05-13.3Q-189.05-8.7 -187.75-6.9Q-186.45-5.1 -182.65-4L-182.65-4L-180.35-3.4L-181.55 0L-203.45 0L-204.75-1.6L-203.45-3.4Q-200.95-6.7 -199.95-10.4Q-198.95-14.1 -198.95-20.1L-198.95-20.1L-198.95-58.5Q-198.95-63.2 -199.6-64.65Q-200.25-66.1 -202.35-66.1L-202.35-66.1L-206.85-66.1Q-210.45-66.1 -212.45-65.35Q-214.45-64.6 -215.6-62.75Q-216.75-60.9 -217.75-57.2L-217.75-57.2L-218.35-54.9L-221.75-56.1L-221.75-73.9L-220.15-75.2L-218.35-73.9Q-215.55-71.8 -206.95-71.8L-206.95-71.8L-181.05-71.8Q-172.45-71.8 -169.65-73.9L-169.65-73.9L-167.85-75.2L-166.25-73.9L-166.25-56.1L-169.65-54.9L-170.25-57.2ZM-152.35-36.1L-151.75-36.1Q-150.05-42.8 -146.5-46.9Q-142.95-51 -138.75-51L-138.75-51Q-134.55-51 -131.8-48.25Q-129.05-45.5 -129.05-40.8L-129.05-40.8Q-129.05-37 -131.85-34.4Q-134.65-31.8 -138.85-31.8L-138.85-31.8Q-140.75-31.8 -140.75-32.9L-140.75-32.9Q-140.75-33.2 -139.9-34.4Q-139.05-35.6 -138.5-36.9Q-137.95-38.2 -137.95-39.8L-137.95-39.8Q-137.95-41.6 -138.9-42.65Q-139.85-43.7 -141.25-43.7L-141.25-43.7Q-143.65-43.7 -146.2-40.85Q-148.75-38 -150.55-31.65Q-152.35-25.3 -152.35-15.6L-152.35-15.6Q-152.35-11.1 -151.65-8.35Q-150.95-5.6 -149.15-3.1L-149.15-3.1L-147.95-1.5L-149.15 0L-166.65 0L-167.75-3.1L-165.65-3.6Q-163.15-4.2 -162.3-5.75Q-161.45-7.3 -161.45-11.1L-161.45-11.1L-161.45-39.2Q-161.45-40.4 -161.9-40.9Q-162.35-41.4 -163.45-41.4L-163.45-41.4L-167.85-41.4L-168.75-44Q-165.85-46.6 -162.1-48.3Q-158.35-50 -155.55-50L-155.55-50Q-154.15-50 -153.25-49.1Q-152.35-48.2 -152.35-46.8L-152.35-46.8L-152.35-36.1ZM-88.95000000000002-9.2Q-93.05000000000001-3.4 -97.35000000000001-1Q-101.65 1.4 -106.65 1.4L-106.65 1.4Q-111.45000000000002 1.4 -115.55000000000001-1.35Q-119.65-4.1 -122.10000000000001-9.6Q-124.55000000000001-15.1 -124.55000000000001-22.9L-124.55000000000001-22.9Q-124.55000000000001-31.5 -121.4-37.85Q-118.25000000000001-44.2 -112.4-47.6Q-106.55000000000001-51 -98.65-51L-98.65-51Q-94.75000000000001-51 -87.65-49.7L-87.65-49.7Q-81.65-48.7 -78.65-48.5L-78.65-48.5L-77.55000000000001-47.2L-78.75000000000001-45.4Q-79.45000000000002-44.4 -79.75000000000001-43.55Q-80.05000000000001-42.7 -80.05000000000001-41.5L-80.05000000000001-41.5L-80.05000000000001-8.8Q-80.05000000000001-5.7 -77.05000000000001-5.7L-77.05000000000001-5.7Q-74.55000000000001-5.7 -72.05000000000001-7.5L-72.05000000000001-7.5L-70.15-4.9Q-72.75000000000001-2 -75.75000000000001-0.3Q-78.75000000000001 1.4 -81.25000000000001 1.4L-81.25000000000001 1.4Q-85.35000000000001 1.4 -87.15-1.1Q-88.95000000000002-3.6 -88.95000000000002-9.2L-88.95000000000002-9.2ZM-114.05000000000001-24.8Q-114.05000000000001-15.3 -110.80000000000001-10.8Q-107.55000000000001-6.3 -102.65-6.3L-102.65-6.3Q-98.65-6.3 -95.15-8.55Q-91.65-10.8 -88.95000000000002-15.4L-88.95000000000002-15.4L-88.95000000000002-42.4Q-93.55000000000001-45.5 -98.75000000000001-45.5L-98.75000000000001-45.5Q-106.05000000000001-45.5 -110.05000000000001-40.05Q-114.05000000000001-34.6 -114.05000000000001-24.8L-114.05000000000001-24.8ZM-40.75000000000001-5.1Q-34.550000000000004-5.1 -31.300000000000004-12.2Q-28.050000000000004-19.3 -28.050000000000004-29.4L-28.050000000000004-29.4Q-28.050000000000004-34.2 -29.150000000000006-38.7Q-30.250000000000007-43.2 -32.45-46.7L-32.45-46.7L-33.45-48.3L-32.25000000000001-49.6L-20.35000000000001-51Q-19.85000000000001-44.8 -19.85000000000001-40.4L-19.85000000000001-40.4Q-19.85000000000001-27.1 -22.85000000000001-17.65Q-25.85000000000001-8.2 -30.900000000000006-3.4Q-35.95 1.4 -41.85000000000001 1.4L-41.85000000000001 1.4Q-47.050000000000004 1.4 -50.2-0.55Q-53.35000000000001-2.5 -55.25000000000001-6.85Q-57.150000000000006-11.2 -58.25000000000001-19L-58.25000000000001-19L-61.35000000000001-40.2Q-61.550000000000004-41.5 -61.95-41.95Q-62.35000000000001-42.4 -63.35000000000001-42.4L-63.35000000000001-42.4L-67.75-42.4L-68.65-45Q-66.05000000000001-47.6 -62.45-49.3Q-58.85000000000001-51 -56.050000000000004-51L-56.050000000000004-51Q-53.35000000000001-51 -52.85000000000001-47.8L-52.85000000000001-47.8L-48.35000000000001-16.6Q-47.45-10.4 -45.75000000000001-7.75Q-44.050000000000004-5.1 -40.75000000000001-5.1L-40.75000000000001-5.1ZM 33.949999999999996-7.5Q 30.25-3.2  25.15-0.9Q 20.049999999999997 1.4  14.149999999999999 1.4L 14.149999999999999 1.4Q 7.25 1.4  2.049999999999999-1.8Q-3.150000000000002-5 -6.000000000000002-10.8Q-8.850000000000001-16.6 -8.850000000000001-24.2L-8.850000000000001-24.2Q-8.850000000000001-32.2 -5.650000000000001-38.25Q-2.450000000000001-44.3  3.3999999999999986-47.65Q 9.25-51  17.049999999999997-51L 17.049999999999997-51Q 22.549999999999997-51  26.4-48.95Q 30.25-46.9  32.15-43.55Q 34.05-40.2  34.05-36.3L 34.05-36.3Q 34.05-32.1  31.799999999999997-28.2Q 29.549999999999997-24.3  25.25-21.85Q 20.949999999999996-19.4  14.95-19.4L 14.95-19.4Q 11.75-19.4  7.849999999999998-20.6Q 3.9499999999999993-21.8  3.9499999999999993-24.1L 3.9499999999999993-24.1Q 3.9499999999999993-24.9  4.399999999999999-25.6Q 4.849999999999998-26.3  5.449999999999999-26.3L 5.449999999999999-26.3Q 5.75-26.3  7.449999999999999-25.65Q 9.149999999999999-25  11.849999999999998-25L 11.849999999999998-25Q 17.849999999999998-25  21.199999999999996-28.4Q 24.549999999999997-31.8  24.549999999999997-36.4L 24.549999999999997-36.4Q 24.549999999999997-40.3  22.049999999999997-43.15Q 19.549999999999997-46  15.049999999999997-46L 15.049999999999997-46Q 8.649999999999999-46  5.049999999999997-40.35Q 1.4499999999999993-34.7  1.4499999999999993-24.2L 1.4499999999999993-24.2Q 1.4499999999999993-15.3  5.25-10.25Q 9.049999999999997-5.2  16.25-5.2L 16.25-5.2Q 25.049999999999997-5.2  30.85-10.9L 30.85-10.9Q 31.25-11.3  31.75-11.3L 31.75-11.3Q 32.55-11.3  33.449999999999996-10.35Q 34.35-9.4  34.35-8.4L 34.35-8.4Q 34.35-7.9  33.949999999999996-7.5L 33.949999999999996-7.5ZM 58.35000000000001-8.8Q 58.35000000000001-5.4  61.35000000000001-5.4L 61.35000000000001-5.4Q 63.85000000000001-5.4  66.35000000000001-7.5L 66.35000000000001-7.5L 68.25-4.9Q 65.65-2  62.650000000000006-0.3Q 59.650000000000006 1.4  57.050000000000004 1.4L 57.050000000000004 1.4Q 52.95 1.4  51.150000000000006-1.1Q 49.35000000000001-3.6  49.35000000000001-9.2L 49.35000000000001-9.2L 49.35000000000001-67.4Q 49.35000000000001-68.6  48.900000000000006-69.1Q 48.45-69.6  47.35-69.6L 47.35-69.6L 42.95-69.6L 42.050000000000004-72.2Q 44.95-74.8  48.650000000000006-76.5Q 52.35000000000001-78.2  55.25-78.2L 55.25-78.2Q 56.650000000000006-78.2  57.550000000000004-77.3Q 58.45-76.4  58.45-75L 58.45-75L 58.35000000000001-8.8ZM 78.95-65.8Q 78.95-67.7  81.1-70.05Q 83.25-72.4  85.05-72.4L 85.05-72.4Q 86.95-72.4  89.15-70.1Q 91.35-67.8  91.35-65.8L 91.35-65.8Q 91.35-63.9  89.15-61.6Q 86.95-59.3  85.05-59.3L 85.05-59.3Q 83.35-59.3  81.15-61.6Q 78.95-63.9  78.95-65.8L 78.95-65.8ZM 89.55-8.8Q 89.55-5.4  92.55-5.4L 92.55-5.4Q 95.05-5.4  97.55-7.5L 97.55-7.5L 99.45-4.9Q 96.85-2  93.85-0.3Q 90.85 1.4  88.25 1.4L 88.25 1.4Q 84.15 1.4  82.35-1.1Q 80.55-3.6  80.55-9.2L 80.55-9.2L 80.55-40.2Q 80.55-41.4  80.1-41.9Q 79.65-42.4  78.55-42.4L 78.55-42.4L 74.15-42.4L 73.25-45Q 76.15-47.6  79.85-49.3Q 83.55-51  86.45-51L 86.45-51Q 87.85-51  88.75-50.1Q 89.65-49.2  89.65-47.8L 89.65-47.8L 89.55-8.8ZM 121.35-16Q 121.35-11.3  122.05000000000001-8.5Q 122.75-5.7  124.55000000000001-3.1L 124.55000000000001-3.1L 125.75-1.5L 124.55000000000001 0L 107.05 0L 105.95-3.1L 108.05-3.6Q 110.55-4.2  111.4-5.75Q 112.25-7.3  112.25-11.1L 112.25-11.1L 112.25-39.2Q 112.25-40.4  111.8-40.9Q 111.35000000000001-41.4  110.25-41.4L 110.25-41.4L 105.85000000000001-41.4L 104.95-44Q 107.85000000000001-46.6  111.60000000000001-48.3Q 115.35000000000001-50  118.15-50L 118.15-50Q 119.55000000000001-50  120.45-49.1Q 121.35-48.2  121.35-46.8L 121.35-46.8L 121.35-36.1Q 123.95-42.6  129.15-46.8Q 134.35-51  140.05-51L 140.05-51Q 147.05-51  150.25-46.7Q 153.45-42.4  153.45-33L 153.45-33L 153.45-8.8Q 153.45-5.4  156.45-5.4L 156.45-5.4Q 158.75-5.4  161.45-7.5L 161.45-7.5L 163.35-4.9Q 160.75-2  157.75-0.3Q 154.75 1.4  152.15 1.4L 152.15 1.4Q 148.05 1.4  146.25-1.1Q 144.45-3.6  144.45-9.2L 144.45-9.2L 144.45-33Q 144.45-43.2  135.85-43.2L 135.85-43.2Q 131.55-43.2  128.3-39.8Q 125.05000000000001-36.4  123.2-30.2Q 121.35-24  121.35-16L 121.35-16ZM 191.55-23.3L 190.65000000000003-23.6Q 188.75000000000003-24.1  188.75000000000003-25.7L 188.75000000000003-25.7Q 188.75000000000003-26.5  189.10000000000002-27.05Q 189.45000000000002-27.6  190.25000000000003-27.6L 190.25000000000003-27.6Q 190.55-27.6  192.25000000000003-27.15Q 193.95000000000002-26.7  196.65000000000003-26.7L 196.65000000000003-26.7Q 200.35000000000002-26.7  202.95000000000002-28.2Q 205.55-29.7  206.85000000000002-32.1Q 208.15000000000003-34.5  208.15000000000003-37L 208.15000000000003-37Q 208.15000000000003-40  206.40000000000003-42.05Q 204.65000000000003-44.1  201.45000000000002-44.1L 201.45000000000002-44.1Q 196.55-44.1  192.85000000000002-40.6Q 189.15000000000003-37.1  187.20000000000002-30.7Q 185.25000000000003-24.3  185.25000000000003-16L 185.25000000000003-16Q 185.25000000000003-11.2  185.95000000000002-8.35Q 186.65000000000003-5.5  188.45000000000002-3.1L 188.45000000000002-3.1L 189.65000000000003-1.5L 188.45000000000002 0L 170.95000000000002 0L 169.85000000000002-3.1L 171.95000000000002-3.6Q 174.45000000000002-4.2  175.3-5.75Q 176.15000000000003-7.3  176.15000000000003-11.1L 176.15000000000003-11.1L 176.15000000000003-67.4Q 176.15000000000003-68.6  175.70000000000002-69.1Q 175.25000000000003-69.6  174.15000000000003-69.6L 174.15000000000003-69.6L 169.75000000000003-69.6L 168.85000000000002-72.2Q 171.75000000000003-74.8  175.50000000000003-76.5Q 179.25000000000003-78.2  182.05-78.2L 182.05-78.2Q 183.45000000000002-78.2  184.35000000000002-77.3Q 185.25000000000003-76.4  185.25000000000003-75L 185.25000000000003-75L 185.25000000000003-36.1Q 187.75000000000003-42.7  192.8-46.85Q 197.85000000000002-51  203.35000000000002-51L 203.35000000000002-51Q 209.95000000000002-51  213.55-47.2Q 217.15000000000003-43.4  217.15000000000003-37.9L 217.15000000000003-37.9Q 217.15000000000003-34.4  215.40000000000003-31.05Q 213.65000000000003-27.7  210.3-25.35Q 206.95000000000002-23  202.35000000000002-22.5L 202.35000000000002-22.5L 210.15000000000003-7.7Q 210.95000000000002-6.1  211.95000000000002-5.5Q 212.95000000000002-4.9  214.35000000000002-4.9L 214.35000000000002-4.9Q 215.65000000000003-4.9  217.05-5.6Q 218.45000000000002-6.3  219.65000000000003-7.5L 219.65000000000003-7.5L 221.75000000000003-4.9Q 217.15000000000003 1.4  211.05 1.4L 211.05 1.4Q 208.05 1.4  206.00000000000003 0.2Q 203.95000000000002-1  202.50000000000003-3.1Q 201.05-5.2  198.95000000000002-9.2L 198.95000000000002-9.2L 191.55-23.3Z"></path></svg>